# xmcd
#
# Track frame offsets:
#	150
#	39552
#	72870
#	103614
#	142689
#	177219
#	231719
#	249880
#	269417
#	302276
#
# Disc length: 4389 seconds
#
# Revision: 1
# Processed by: cddbd v1.5.2PL0 Copyright (c) Steve Scherf et al.
# Submitted via: EasyCDDAExtractor 10.0.6.1
#
DISCID=7f11230a
DTITLE=David DeAngelo - Interview - Robert Glover
DYEAR=2008
DGENRE=
TTITLE0=01 - Interview - Robert Glover
TTITLE1=02 - Interview - Robert Glover
TTITLE2=03 - Interview - Robert Glover
TTITLE3=04 - Interview - Robert Glover
TTITLE4=05 - Interview - Robert Glover
TTITLE5=06 - Interview - Robert Glover
TTITLE6=07 - Interview - Robert Glover
TTITLE7=08 - Interview - Robert Glover
TTITLE8=09 - Interview - Robert Glover
TTITLE9=10 - Interview - Robert Glover
EXTD=
EXTT0=
EXTT1=
EXTT2=
EXTT3=
EXTT4=
EXTT5=
EXTT6=
EXTT7=
EXTT8=
EXTT9=
PLAYORDER=
